<svg width="1400" height="760" viewBox="0 0 1400 760" fill="none" xmlns="http://www.w3.org/2000/svg">
  <defs>
    <linearGradient id="cover" x1="56" y1="28" x2="1341" y2="735" gradientUnits="userSpaceOnUse">
      <stop stop-color="#B39171"/>
      <stop offset="0.5" stop-color="#A88463"/>
      <stop offset="1" stop-color="#8F6A4E"/>
    </linearGradient>
    <linearGradient id="coverInner" x1="84" y1="44" x2="1314" y2="704" gradientUnits="userSpaceOnUse">
      <stop stop-color="#B9997A"/>
      <stop offset="1" stop-color="#9A7559"/>
    </linearGradient>
    <linearGradient id="paper" x1="185" y1="86" x2="1204" y2="653" gradientUnits="userSpaceOnUse">
      <stop stop-color="#FCF9F1"/>
      <stop offset="1" stop-color="#F3EBDD"/>
    </linearGradient>
    <filter id="shadow" x="0" y="0" width="1400" height="760" filterUnits="userSpaceOnUse" color-interpolation-filters="sRGB">
      <feFlood flood-opacity="0" result="BackgroundImageFix"/>
      <feColorMatrix in="SourceAlpha" type="matrix" values="0 0 0 0 0 0 0 0 0 0 0 0 0 0 0 0 0 0 127 0" result="hardAlpha"/>
      <feOffset dy="14"/>
      <feGaussianBlur stdDeviation="18"/>
      <feColorMatrix type="matrix" values="0 0 0 0 0.31 0 0 0 0 0.21 0 0 0 0 0.14 0 0 0 0.18 0"/>
      <feBlend mode="normal" in2="BackgroundImageFix" result="effect1_dropShadow_1_2"/>
      <feBlend mode="normal" in="SourceGraphic" in2="effect1_dropShadow_1_2" result="shape"/>
    </filter>
    <filter id="pageShadow" x="50" y="20" width="1300" height="706" filterUnits="userSpaceOnUse" color-interpolation-filters="sRGB">
      <feFlood flood-opacity="0" result="BackgroundImageFix"/>
      <feColorMatrix in="SourceAlpha" type="matrix" values="0 0 0 0 0 0 0 0 0 0 0 0 0 0 0 0 0 0 127 0" result="hardAlpha"/>
      <feOffset dy="8"/>
      <feGaussianBlur stdDeviation="10"/>
      <feColorMatrix type="matrix" values="0 0 0 0 0.36 0 0 0 0 0.25 0 0 0 0 0.17 0 0 0 0.12 0"/>
      <feBlend mode="normal" in2="BackgroundImageFix" result="effect1_dropShadow_1_2"/>
      <feBlend mode="normal" in="SourceGraphic" in2="effect1_dropShadow_1_2" result="shape"/>
    </filter>
  </defs>

  <g filter="url(#shadow)">
    <rect x="18" y="18" width="1364" height="724" rx="40" fill="url(#cover)"/>
    <rect x="32" y="30" width="1336" height="700" rx="34" fill="url(#coverInner)"/>
    <rect x="42" y="40" width="1316" height="680" rx="30" stroke="#DCC2A8" stroke-opacity="0.28" stroke-width="2"/>
    <rect x="54" y="52" width="1292" height="656" rx="28" stroke="#724F36" stroke-opacity="0.22" stroke-width="2"/>

    <rect x="28" y="150" width="60" height="92" rx="12" fill="#F8F3EA"/>
    <rect x="28" y="260" width="60" height="92" rx="12" fill="#9D7A5D" fill-opacity="0.46"/>
    <rect x="28" y="370" width="60" height="92" rx="12" fill="#9D7A5D" fill-opacity="0.38"/>
    <rect x="28" y="480" width="60" height="92" rx="12" fill="#9D7A5D" fill-opacity="0.3"/>

    <rect x="86" y="48" width="624" height="672" rx="28" fill="#EEE5D8" opacity="0.84"/>
    <rect x="92" y="42" width="618" height="680" rx="28" fill="#F6F0E6" opacity="0.94"/>
    <rect x="694" y="42" width="622" height="680" rx="28" fill="#EEE5D8" opacity="0.76"/>
    <rect x="702" y="38" width="614" height="686" rx="28" fill="#F7F1E8" opacity="0.9"/>
  </g>

  <!-- 右侧下方叠层：5 页纸压在顶层页下面，每页递进偏移 2-3px，累积出明显厚度 -->
  <g>
    <!-- 最底层（第5页）：偏移 12px 右下，最深 -->
    <rect x="716" y="38" width="608" height="684" rx="23" fill="#CEB995" opacity="0.72"/>
    <!-- 第4页：偏移 10px 右下 -->
    <rect x="714" y="36" width="608" height="684" rx="23.5" fill="#D5C29F" opacity="0.76"/>
    <!-- 第3页：偏移 8px 右下 -->
    <rect x="712" y="34" width="608" height="684" rx="24" fill="#DCC9A8" opacity="0.8"/>
    <!-- 第2页：偏移 6px 右下 -->
    <rect x="710" y="32" width="608" height="684" rx="24.5" fill="#E3D2B2" opacity="0.85"/>
    <!-- 第1页（紧贴顶层下方）：偏移 3px 右下 -->
    <rect x="707" y="29" width="608" height="684" rx="25" fill="#EADBBD" opacity="0.9"/>
  </g>

  <g filter="url(#pageShadow)">
    <rect x="96" y="26" width="608" height="684" rx="26" fill="url(#paper)"/>
    <rect x="704" y="26" width="608" height="684" rx="26" fill="url(#paper)"/>
  </g>

  <path d="M696 20H704V716H696V20Z" fill="#8C6A4F" fill-opacity="0.18"/>
  <path d="M686 26C692 180 693 562 686 710" stroke="#8A674B" stroke-opacity="0.18" stroke-width="2"/>
  <path d="M714 26C708 180 707 562 714 710" stroke="#F8F2EA" stroke-opacity="0.4" stroke-width="2"/>
  <path d="M700 20C694 110 694 630 700 716" stroke="#6F4C35" stroke-opacity="0.12" stroke-width="8"/>
</svg>
