<?xml version="1.0" standalone="no"?><!DOCTYPE svg PUBLIC "-//W3C//DTD SVG 1.1//EN" "http://www.w3.org/Graphics/SVG/1.1/DTD/svg11.dtd"><svg t="1775465500279" class="icon" viewBox="0 0 1079 1024" version="1.1" xmlns="http://www.w3.org/2000/svg" p-id="11065" xmlns:xlink="http://www.w3.org/1999/xlink" width="210.7421875" height="200"><path d="M152.805185 442.229647a0.155549 0.155549 0 0 0 0-0.192148 0.128099 0.128099 0 0 0-0.182999 0 134.01891 134.01891 0 0 0-40.259657 37.459781 107.969082 107.969082 0 0 0-17.979597 43.919627 59.831341 59.831341 0 0 0 1.967233 29.517649 8.985224 8.985224 0 0 1 0.411747 3.952766 2.744977 2.744977 0 0 1-2.37898 2.40643 4.071715 4.071715 0 0 1-4.465162-2.744977A61.20383 61.20383 0 0 1 85.095761 531.359039a3.193323 3.193323 0 0 0-1.061391-2.378979 47.963892 47.963892 0 0 1-12.324945-26.287727 92.505713 92.505713 0 0 1-0.558146-29.279751c4.73966-36.050693 26.187077-66.620583 53.591095-90.392081a0.539845 0.539845 0 0 0 0.201298-0.301948 0.256198 0.256198 0 0 0-0.356847-0.265347 137.148184 137.148184 0 0 0-34.989303 21.621266 107.136439 107.136439 0 0 0-34.02856 52.721851 73.711773 73.711773 0 0 0-2.836476 25.683832 2.918825 2.918825 0 0 1-3.52272 3.156723c-3.833817-0.430046-6.112148-6.404946-6.981391-9.470169a58.102006 58.102006 0 0 1-1.967233-19.837032 114.191029 114.191029 0 0 1 39.884511-74.773164 1.829984 1.829984 0 0 0 0.594745-1.216939c3.330572-45.200616 33.854712-79.348125 71.66219-101.060891 18.546892-10.650509 41.439998-20.944172 55.933475-27.687665a359.344894 359.344894 0 0 0 45.923459-25.354434 232.938719 232.938719 0 0 0 33.534465-27.211868 59.831341 59.831341 0 0 0 7.173539-11.254405q15.628067-28.428808 32.610323-54.560986a341.520846 341.520846 0 0 1 36.599688-46.664603 266.537233 266.537233 0 0 1 68.441418-52.94145 287.801653 287.801653 0 0 1 120.385527-32.93972 222.864655 222.864655 0 0 1 123.057303 26.013229 80.080119 80.080119 0 0 1 10.247913 7.07289 9.964265 9.964265 0 0 0 4.218114 2.058732 107.850133 107.850133 0 0 1 20.642225 6.606244 214.263728 214.263728 0 0 1 69.685807 50.324572 284.278933 284.278933 0 0 1 57.488961 92.222066 79.155977 79.155977 0 0 0 6.496445 10.55901 183.42849 183.42849 0 0 1 26.351776 84.179284 129.38905 129.38905 0 0 1-3.778918 38.704171 86.640613 86.640613 0 0 1-13.669984 29.40785 55.009332 55.009332 0 0 1-19.040988 16.597959 1.16204 1.16204 0 0 0-0.558145 1.354189q2.744977 9.149922 7.438887 25.747881a414.738523 414.738523 0 0 1 11.181205 53.069548 212.415444 212.415444 0 0 1 0.155548 59.931991 115.810565 115.810565 0 0 1-24.997587 58.952948 74.11437 74.11437 0 0 0-6.487295 7.265039 4.931808 4.931808 0 0 0-0.558145 1.226089c-6.679443 23.021204-19.837031 47.03975-41.17465 59.474494a45.475113 45.475113 0 0 1-33.076969 5.407604c-2.607728-0.677094-5.416754-1.674436-5.233755-4.721359 0.210448-3.385471 7.631035-2.077032 8.902874-2.049583a30.926737 30.926737 0 0 0 16.387511-4.108315 64.506951 64.506951 0 0 0 28.584356-37.65193 0.356847 0.356847 0 0 0-0.439196-0.448346l-7.08204 2.058732a51.669611 51.669611 0 0 1-19.443584 1.829985 1.107141 1.107141 0 0 0-1.043091 0.521545 122.25211 122.25211 0 0 1-68.725066 54.18584 0.192148 0.192148 0 0 0 0 0.365996 60.151588 60.151588 0 0 1 22.957155 7.319938 8.381329 8.381329 0 0 0 3.312272 1.25354 205.525552 205.525552 0 0 1 49.40958 12.89224 88.946394 88.946394 0 0 1 39.866211 31.73193 186.338165 186.338165 0 0 1 26.534774 65.632392 2.040433 2.040433 0 0 0 1.418238 1.518887 178.423483 178.423483 0 0 1 60.654834 27.879813 0.576445 0.576445 0 0 0 0.466646 0.109799 0.558145 0.558145 0 0 0 0.384297-0.283648 137.660579 137.660579 0 0 1 57.763459-54.460336 230.898286 230.898286 0 0 1 85.506022-26.296877 13.816383 13.816383 0 0 1 12.97459 3.797218 43.48958 43.48958 0 0 1 8.811375 11.812549 1.18034 1.18034 0 0 0 1.079691 0.640495c4.639011-0.109799 9.506769 0.521546 10.064914 6.084698a18.86714 18.86714 0 0 1-1.619536 6.533045q-11.565502 31.612981-47.0306 129.681847-7.127789 19.690633-9.204822 25.702131a0.439196 0.439196 0 0 0 0.320248 0.567296 26.589674 26.589674 0 0 1 17.311652 12.388994 31.484882 31.484882 0 0 1 3.248223 29.673198c-1.994683 3.595919-4.574961 6.578794-3.659969 11.144605a36.892486 36.892486 0 0 1-0.841793 26.781822q-0.969892 1.829984-5.297805 8.335579a9.36037 9.36037 0 0 0-1.11629 5.233756q0.247048 7.402287 0.137248 8.646676a27.449767 27.449767 0 0 1-7.374837 17.073755 6.551344 6.551344 0 0 1-7.319938 1.985533 3.861267 3.861267 0 0 1-2.461329-4.831159 1.829984 1.829984 0 0 1 0.347697-0.832643 24.631591 24.631591 0 0 0 6.624544-16.726057q-0.182998-2.744977-0.219598-7.905533a20.843523 20.843523 0 0 1 5.956599-13.020339 19.114187 19.114187 0 0 0 2.690077-16.387511 61.066581 61.066581 0 0 1-1.491437-11.7302 17.577001 17.577001 0 0 1 3.57762-10.211313 12.93799 12.93799 0 0 0 2.049582-12.425595 19.461884 19.461884 0 0 0-12.068747-15.600617 35.767046 35.767046 0 0 0-12.288346-1.674436 98.105466 98.105466 0 0 0-37.56043 9.003524 56.49162 56.49162 0 0 0-9.250572 5.252055 6.716043 6.716043 0 0 0-2.744976 4.72136c-1.024791 8.070231 6.404946 10.229613 12.809891 9.854466a246.883201 246.883201 0 0 1 35.684696-0.484946 4.309613 4.309613 0 1 1 0 8.573477 248.16419 248.16419 0 0 0-45.173165 4.574961c-2.31493 0.558145-5.371004 1.875734-5.828501 4.410263a6.249397 6.249397 0 0 0 3.101824 7.319938 30.112394 30.112394 0 0 0 9.104172 2.836475 146.837951 146.837951 0 0 1 30.62479 6.816692c2.744977 0.997342 6.496445 3.019474 6.048098 6.322597-0.494096 3.659969-4.456012 3.879567-7.393137 3.129273q-7.319938-1.829984-15.554867-3.56847a66.382685 66.382685 0 0 0-21.850015-0.860092c-4.474312 0.567295-9.241421 2.159382-9.653168 7.319937-0.494096 6.249397 4.465162 8.170881 9.406121 9.378671a156.198322 156.198322 0 0 1 24.457742 7.319937c3.797218 1.555487 9.808717 3.742318 10.064914 7.942133 0.210448 3.458671-3.751468 4.75796-6.633694 4.199814a89.513689 89.513689 0 0 1-11.190354-3.074374 0.979042 0.979042 0 0 0-0.750294 0.0549 0.960742 0.960742 0 0 0-0.484946 0.576445 55.631527 55.631527 0 0 1-2.744977 7.246738 4.831159 4.831159 0 0 1-7.246738 2.818176 4.67561 4.67561 0 0 1-2.35153-6.112148 62.997214 62.997214 0 0 1 2.744977-7.429736 0.677094 0.677094 0 0 0-0.466646-0.914993c-11.977248-2.818176-25.372734-6.148748-25.308685-21.520617a16.945656 16.945656 0 0 1 9.918515-15.609767 0.301947 0.301947 0 0 0 0.08235-0.457496 16.799257 16.799257 0 0 1 3.147573-25.711281 0.713694 0.713694 0 0 0 0.173849-1.015642q-0.914992-1.244389-1.418238-1.875734a19.022688 19.022688 0 0 1 8.573477-29.051003 112.91004 112.91004 0 0 1 47.03975-12.93799 1.912334 1.912334 0 0 0 1.692735-1.262689l55.814526-154.313438a0.402597 0.402597 0 0 0-0.457496-0.539845 302.066381 302.066381 0 0 0-119.067938 48.979533c-8.344729 5.737001-16.369211 12.087047-23.368901 17.503802a18.85799 18.85799 0 0 0-2.909675 3.046924 1.829984 1.829984 0 0 0-0.356847 0.768593 46.014959 46.014959 0 0 1-1.573787 5.8651q-35.492548 106.029298-61.569826 184.572231-3.110974 9.38782-4.977558 14.255578c-2.497929 6.560494-11.72105 4.355363-9.680618-2.744976q1.363338-4.785409 2.516229-8.23493 28.099411-84.856378 62.32927-187.454456a0.338547 0.338547 0 0 0-0.04575-0.311097 0.311097 0.311097 0 0 0-0.283647-0.128099 99.377305 99.377305 0 0 1-30.450942-3.53187q-15.454219-3.659969-35.053351-8.335579-1.107141-0.265348-18.647542-4.090016a734.866851 734.866851 0 0 0-142.894335-16.863306q-19.040988-0.375147-35.25465 0.914992a87.134709 87.134709 0 0 0-10.742009 1.445688 2.38813 2.38813 0 0 0-1.775084 1.564636q-12.388995 35.757896-25.116537 74.022871-22.197711 66.739532-51.331063 155.24673a6.404946 6.404946 0 0 1-2.39728 3.348871 5.087357 5.087357 0 0 1-7.859783-3.037774 10.769458 10.769458 0 0 1 0.759443-5.242905q5.014157-15.646367 20.212179-61.395978a0.466646 0.466646 0 0 0-0.448347-0.613045q-17.714249 0.219598-20.816073 0a5.489953 5.489953 0 0 1-5.672951-4.501762 15.554868 15.554868 0 0 1 1.390788-7.502936q7.319938-22.920555 17.101204-54.634185a0.247048 0.247048 0 0 0-0.375146-0.292798 28.712456 28.712456 0 0 1-5.416754 2.488779 24.466892 24.466892 0 0 1-17.7417-2.30578 66.410135 66.410135 0 0 1-22.646057-22.051313 29.279751 29.279751 0 0 1-0.914992-30.295392 178.267934 178.267934 0 0 1 10.430911-19.937681 0.292798 0.292798 0 0 0-0.283647-0.439196 39.756412 39.756412 0 0 1-18.125996-1.345039c-16.927356-5.691252-28.419658-19.059288-39.555114-33.076968q-9.314621-11.7302-18.226645-25.290385a0.265348 0.265348 0 0 0-0.484946 0.201298 572.190384 572.190384 0 0 1 9.47017 84.289083 873.241124 873.241124 0 0 1-3.476971 110.970257q-3.184173 36.389241-8.23493 67.965622-0.914992 6.002349-7.539536 4.574961c-2.918825-0.622195-3.193323-4.986708-2.809026-7.502937a1068.91221 1068.91221 0 0 0 11.382503-123.020703 575.429457 575.429457 0 0 0-9.278021-133.936561 283.016243 283.016243 0 0 0-12.187696-42.519689 152.227255 152.227255 0 0 0-14.639875-29.453599 67.837523 67.837523 0 0 0-48.403089-31.713631 47.0123 47.0123 0 0 0-12.809891 0 117.530751 117.530751 0 0 0-12.654342 2.34238 288.487897 288.487897 0 0 0-52.520554 18.84884 97.410072 97.410072 0 0 0-31.484882 23.295702 0.256198 0.256198 0 0 0 0.301947 0.402597 99.130257 99.130257 0 0 1 25.619783-7.823184 64.598451 64.598451 0 0 1 61.12148 19.96513 136.773037 136.773037 0 0 1 27.522966 55.384479c22.463059 82.605498 14.530076 169.273561-3.147573 251.375813a5.188006 5.188006 0 0 1-7.06374 4.346213c-4.071715-1.299289-3.659969-5.371004-2.845626-9.104173a836.796984 836.796984 0 0 0 13.816382-89.934585 477.296541 477.296541 0 0 0-2.744976-115.28902A300.117448 300.117448 0 0 0 352.273489 761.022086a146.764752 146.764752 0 0 0-14.722225-33.287417A66.721233 66.721233 0 0 0 322.993738 710.853063a57.64451 57.64451 0 0 0-54.844634-8.847975 135.492048 135.492048 0 0 0-63.390661 42.162842 292.138716 292.138716 0 0 0-47.707694 79.686672 908.065728 908.065728 0 0 0-31.914929 87.491556q-15.554868 50.416071-27.312518 101.646486c-0.658794 2.854776-1.19864 6.587944-4.007665 7.319937-4.574961 1.12544-8.372179-1.829984-7.319938-6.523894q8.573477-37.130384 17.961297-70.930197a1024.480188 1024.480188 0 0 1 38.630972-113.852482 466.252585 466.252585 0 0 1 25.015887-51.980708q4.218114-7.493786 10.064914-15.838515a0.274498 0.274498 0 0 0 0-0.283648 0.256198 0.256198 0 0 0-0.237898-0.137248 8.683276 8.683276 0 0 0-2.507078 0.594744q-11.565502 4.181514-27.623616 10.229613-8.353879 3.138423-13.368036 5.627203a95.946084 95.946084 0 0 0-41.009951 37.789178 152.318755 152.318755 0 0 0-17.211004 50.269673q-2.744977 14.466027-4.574961 30.277092-3.879567 34.376258-5.224605 54.194989-0.155549 2.32408-0.210449 6.404946a2.644328 2.644328 0 0 1-0.146398 0.869243 5.023307 5.023307 0 0 1-7.07289 3.202472q-22.206861-6.404946-36.261142-10.247913a18.75734 18.75734 0 0 0-2.680927-0.585595 1.280989 1.280989 0 0 0-1.436538 1.052242l-1.445688 8.390478a1.235239 1.235239 0 0 0 0.914993 1.409088q3.897867 1.043091 42.803336 11.245255a4.437712 4.437712 0 0 1 0.393446 8.701576 1.738485 1.738485 0 0 1-0.777743 0.091499 46.390106 46.390106 0 0 1-5.746151-0.869243q-27.358267-7.136939-38.493723-10.010015a0.457496 0.457496 0 0 0-0.375147 0.06405 0.484946 0.484946 0 0 0-0.210448 0.320247q-3.422071 22.508809-4.895208 43.791528c-0.237898 3.312272-0.988192 6.981391-5.023308 6.935641-4.904358-0.0549-5.965749-3.916167-5.663801-8.106831q1.829984-25.711281 6.404945-55.219781a69.740707 69.740707 0 0 1 2.863926-12.581143 10.138114 10.138114 0 0 1 12.92884-5.590602 0.466646 0.466646 0 0 0 0.576445-0.402597q3.001174-26.306026 6.569644-51.120615 2.38813-16.607109 5.645502-31.969828a149.820826 149.820826 0 0 1 11.894899-36.800987 70.381201 70.381201 0 0 1 35.483398-33.927912q6.807542-3.001174 16.46986-6.651993 2.195981-0.832643 58.925499-21.758515 16.716908-6.167048 30.752889-10.979907a4.465162 4.465162 0 0 0 2.003832-1.372488 172.265585 172.265585 0 0 1 36.910787-34.412858 3.989366 3.989366 0 0 0 1.418238-1.692735 83.264292 83.264292 0 0 1 30.048344-34.07431 128.419158 128.419158 0 0 1 16.46986-9.680618 272.045487 272.045487 0 0 1 35.336999-14.182379 0.301947 0.301947 0 0 0 0-0.585595 124.091245 124.091245 0 0 1-29.901945-9.43357c-32.363275-14.868624-42.35499-46.262007-40.717154-79.521974a0.347697 0.347697 0 0 0-0.118949-0.283648 0.439196 0.439196 0 0 0-0.311097-0.109799 0.530695 0.530695 0 0 0-0.512396 0.356847 51.239564 51.239564 0 0 0-2.113632 6.514745 77.865838 77.865838 0 0 0 2.479629 49.638328 27.01972 27.01972 0 0 0 3.961916 6.734343c2.38813 2.744977 7.557836 7.905533 2.653478 10.064914a8.692426 8.692426 0 0 1-5.014158 0.365997 44.020276 44.020276 0 0 1-32.436474-26.187077c-9.790417-22.490509-6.990541-47.579595-4.300463-71.369394a0.548995 0.548995 0 0 0-0.914993-0.402596 20.797773 20.797773 0 0 0-2.927975 4.574961 107.456686 107.456686 0 0 0-9.854466 38.996968 66.931681 66.931681 0 0 0 4.986708 31.109736c1.683586 3.980216 2.973725 7.173539-1.024792 9.195672a36.242842 36.242842 0 0 1-17.677649-1.097991 77.60049 77.60049 0 0 1-57.864108-66.959131 114.06293 114.06293 0 0 1-0.164699-25.326984 173.848522 173.848522 0 0 1 27.05632-73.821573q3.385471-5.361854 6.734343-10.211313z m579.061976-207.703233a170.581999 170.581999 0 0 1-36.599689 57.845808 88.937244 88.937244 0 0 1-20.422626 15.26207 46.554804 46.554804 0 0 1-9.872766 4.144915c-2.799876 0.759444-7.155239-1.253539-4.831159-4.629861a45.365314 45.365314 0 0 1 8.23493-7.521236 0.265348 0.265348 0 0 0 0.100649-0.173849 0.247048 0.247048 0 0 0-0.0549-0.192148 0.347697 0.347697 0 0 0-0.448346-0.082349 169.273561 169.273561 0 0 1-19.361235 9.671468 85.606672 85.606672 0 0 1-22.243461 6.340896 16.039814 16.039814 0 0 1-10.56816-1.17119c-2.561978-1.628686-1.784235-5.636352-0.338547-7.621886s4.337063-5.389304 8.546027-10.064914a106.376995 106.376995 0 0 0 7.951282-10.64136c1.299289-1.903184 2.937125-5.279505 4.574961-7.530385a0.283648 0.283648 0 0 0-0.402596-0.393447 61.578976 61.578976 0 0 0-4.355363 4.867758 77.142994 77.142994 0 0 1-43.52618 27.202719c-6.093848 0.914992-11.894899-2.415579-8.729026-9.076723a0.311097 0.311097 0 0 0-0.265348-0.439196 98.068866 98.068866 0 0 0-56.37267 12.809891c-1.381638 0.823493-4.062565 1.729335-5.050757-0.091499-2.241731-4.108315 7.10034-10.751159 10.064914-12.617743a73.967971 73.967971 0 0 1 20.587325-9.040123 105.645002 105.645002 0 0 1 38.310724-2.32408 1.262689 1.262689 0 0 0 1.134591-0.484946 229.388549 229.388549 0 0 0 31.320183-56.006674 251.970557 251.970557 0 0 0 8.180031-25.391034 10.339412 10.339412 0 0 0 0.420896-2.809026 0.356847 0.356847 0 0 0-0.649644-0.182998 319.945329 319.945329 0 0 1-40.836103 51.934958 209.981564 209.981564 0 0 1-95.607537 55.750476 3.659969 3.659969 0 0 0-2.35153 2.003833 105.83715 105.83715 0 0 1-16.167913 25.208035 64.781449 64.781449 0 0 1-35.492548 22.060463 7.960432 7.960432 0 0 1-7.878083-2.168532 51.614711 51.614711 0 0 0-25.83938-15.490818c-22.37156-4.849459-39.234866 10.522411-45.374464 30.707139a73.629424 73.629424 0 0 0 6.185347 59.538544 62.091372 62.091372 0 0 0 23.789798 23.057804 55.366179 55.366179 0 0 0 52.200306 1.308438 2.433879 2.433879 0 0 1 3.760618 1.19864A217.768148 217.768148 0 0 0 469.465692 498.419319a1.729335 1.729335 0 0 1 0.375147 0.814344 19.214837 19.214837 0 0 1 0.182998 4.986707q-2.122782 22.874805-5.371004 44.72482a305.396953 305.396953 0 0 1-7.814034 37.972177c-1.381638 4.895208-2.626028 8.125131-4.574961 13.267387a0.439196 0.439196 0 0 0 0.201299 0.539845 370.343101 370.343101 0 0 1 44.834618 29.837897q24.75054 19.214837 47.0672 40.259657 15.646367 14.777124 39.573414 38.685871 2.424729 2.424729 6.725192 6.057249a14.447727 14.447727 0 0 0 3.55932 2.232581 1.235239 1.235239 0 0 0 1.24439-0.164699 37.514681 37.514681 0 0 0 10.806058-13.724883 106.871091 106.871091 0 0 0 8.875424-29.627448 6.404946 6.404946 0 0 0-0.210448-3.293972 0.585595 0.585595 0 0 0-0.137249-0.219598l-10.430911-10.430911a0.219598 0.219598 0 0 0-0.365997 0.091499c-1.299289 4.876909 2.507079 13.267387-1.692736 14.905223-6.167048 2.40643-7.731684-8.729026-7.878083-12.251746a146.179157 146.179157 0 0 1 0.237898-15.463368q1.14374-17.156104 3.842968-34.559256a1.006491 1.006491 0 0 0-0.695394-1.107141 136.745587 136.745587 0 0 1-40.342007-22.252611 231.61198 231.61198 0 0 1-44.907818-46.106458 15.618917 15.618917 0 0 1-3.028625-6.130448c0.128099-3.065224 2.690077-3.714868 4.904359-2.27833a236.681037 236.681037 0 0 0 76.978295 32.518823 143.333531 143.333531 0 0 0 54.808034 1.381639 151.769759 151.769759 0 0 0 46.344356-16.341761 140.048709 140.048709 0 0 0 42.629487-34.605006 125.454583 125.454583 0 0 0 25.985779-58.385654q1.015641-5.618052 4.208964-30.624789a205.013157 205.013157 0 0 1 9.525069-39.573414 292.687711 292.687711 0 0 0 17.67765-74.754864 0.265348 0.265348 0 0 0-0.503246-0.146399 57.736009 57.736009 0 0 1-20.459226 23.789798c-5.197156 2.744977-10.211313-0.073199-9.085872-6.231097q0.576445-3.165873 2.525378-12.169397a1.546337 1.546337 0 0 0-0.841793-1.720185 62.219471 62.219471 0 0 0-39.079317-4.318763 6.633694 6.633694 0 0 1-3.659969-0.558146 1.19864 1.19864 0 0 1-0.658795-0.667944c-2.049583-5.352704 7.603585-9.030973 11.693601-9.936815a50.983366 50.983366 0 0 1 33.909612 3.897867 0.430046 0.430046 0 0 0 0.393446 0 0.448346 0.448346 0 0 0 0.228748-0.338548 229.415999 229.415999 0 0 0-14.886923-103.769267 77.545591 77.545591 0 0 0-4.574961-9.973415 0.164699 0.164699 0 0 0-0.311098 0.073199 236.278441 236.278441 0 0 1-7.594435 55.448529 159.90404 159.90404 0 0 1-15.975764 39.152517 75.560057 75.560057 0 0 1-22.32581 25.464233c-2.214281 1.473137-7.219289 2.744977-8.23493-0.558145-0.832643-2.744977 3.659969-6.066398 5.929149-8.445378a134.311708 134.311708 0 0 0 32.646923-66.465035 22.948005 22.948005 0 0 0 0.393446-2.744977 0.146399 0.146399 0 0 0-0.274497-0.064049z m115.572667-18.217495a0.237898 0.237898 0 0 0-0.439196 0.155548 294.325547 294.325547 0 0 1 5.261205 43.416381 188.20475 188.20475 0 0 1-10.485811 74.11437 105.489453 105.489453 0 0 1-11.217805 21.795114 1.088841 1.088841 0 0 0 1.024792 1.683586 7.502936 7.502936 0 0 0 3.321421-1.372488 64.360553 64.360553 0 0 0 23.185903-33.040369 143.763577 143.763577 0 0 0-3.266522-89.083643 116.38701 116.38701 0 0 0-7.347387-17.6319z m-571.110694 2.955424a21.630416 21.630416 0 0 0-4.474311 3.403771 281.524806 281.524806 0 0 1-39.170817 25.253786q-8.23493 4.574961-29.682348 14.639875-20.870973 9.753817-31.036536 14.850324a223.258101 223.258101 0 0 0-35.968344 22.234311 114.483826 114.483826 0 0 0-46.609704 73.775822 0.192148 0.192148 0 0 0 0.311098 0.173849 271.340943 271.340943 0 0 1 36.535639-24.000246q22.874805-12.544543 30.917587-17.110354a441.410546 441.410546 0 0 0 49.793877-32.820771 273.134327 273.134327 0 0 0 41.421697-39.344666 268.422117 268.422117 0 0 0 28.154311-40.817803 0.155549 0.155549 0 0 0-0.201298-0.228748z m547.787542 336.131542a0.393447 0.393447 0 0 0 0.713694 0.301947 85.094276 85.094276 0 0 0 6.102998-9.149922 117.228803 117.228803 0 0 0 14.740525-43.617679 236.003943 236.003943 0 0 0-4.181515-81.489207q-5.444204-25.619782-13.532735-51.596411a0.365997 0.365997 0 0 0-0.713693 0.054899 332.014077 332.014077 0 0 0-3.57762 69.47536q0.640495 12.096197 2.680927 43.47128a342.353489 342.353489 0 0 1-2.232581 72.549733z m-23.5519-67.416627a6.404946 6.404946 0 0 0-0.484945 1.784235 275.559057 275.559057 0 0 1-13.633384 62.30182 194.518196 194.518196 0 0 1-14.17323 31.558082 0.494096 0.494096 0 0 0 0 0.494096 0.475796 0.475796 0 0 0 0.420896 0.237898 56.052423 56.052423 0 0 0 24.942688-6.285997 1.564637 1.564637 0 0 0 0.814343-1.061391 267.690124 267.690124 0 0 0 2.36983-88.973843 0.137249 0.137249 0 0 0-0.265347 0zM591.086458 728.448363a0.393447 0.393447 0 0 0 0-0.722844 21.447418 21.447418 0 0 1-5.9383-3.156723 89.239191 89.239191 0 0 1-8.655826-7.493786q-15.554868-15.856815-34.568406-34.07431-14.374528-13.770633-30.871838-27.953012a435.893143 435.893143 0 0 0-57.955607-42.089643c-6.505595-3.952766-12.809891-6.844142-18.061946-9.451869-2.653477-1.326739-4.574961-3.56847-3.046924-6.505595 1.775085-3.431221 6.752643-1.582937 9.973415-0.640494a1.17119 1.17119 0 0 0 1.445688-0.750294l4.090015-12.343245a0.576445 0.576445 0 0 0-0.512396-0.759444 92.707012 92.707012 0 0 0-20.358577 0.622195 35.831095 35.831095 0 0 0-23.881297 19.214837q-13.038639 20.880122-24.704789 42.382439a0.731994 0.731994 0 0 0 0.375146 1.033942 76.228002 76.228002 0 0 1 29.837897 21.337618 111.629051 111.629051 0 0 1 16.790107 25.619782q6.130448 13.066089 7.713384 17.824049a54.286488 54.286488 0 0 0 5.114807 12.004698c10.906707 16.067263 21.291869 32.344975 33.424666 47.854093a114.282528 114.282528 0 0 0 24.576691 24.933538 29.792147 29.792147 0 0 0 34.01026 1.829984 59.758142 59.758142 0 0 0 10.165564-8.637527 338.153674 338.153674 0 0 0 29.938545-37.514681 163.582309 163.582309 0 0 0 8.902875-13.926181 13.788933 13.788933 0 0 1 8.628376-7.475487q2.845626-0.887542 3.56847-1.16204z m10.220463-0.576445q1.116291 0.091499 6.249397-0.247048a16.396661 16.396661 0 0 1 15.490818 5.581453 179.475724 179.475724 0 0 0 16.350911 20.321977 0.914992 0.914992 0 0 0 1.235239 0.109799 24.777989 24.777989 0 0 1 14.639876-5.709551l15.692117-0.988192a0.494096 0.494096 0 0 0 0.457496-0.494096 158.80605 158.80605 0 0 0-0.686245-18.656691 252.016307 252.016307 0 0 0-19.214836-72.851681q-2.516229-5.83765-6.331746-13.102688a63.948806 63.948806 0 0 0-14.255579-20.376877 47.918143 47.918143 0 0 0-21.044821-8.994373 0.722844 0.722844 0 0 0-0.558145 0.109799 0.704544 0.704544 0 0 0-0.301948 0.475796l-2.616878 16.790107a0.741144 0.741144 0 0 0 0.128099 0.558145 0.759444 0.759444 0 0 0 0.494096 0.301948 19.98343 19.98343 0 0 1 11.894899 6.267696 40.708004 40.708004 0 0 1 7.319938 26.251127 106.001849 106.001849 0 0 1-11.446553 46.481605 55.26553 55.26553 0 0 1-13.724883 17.60445 0.320247 0.320247 0 0 0 0.182998 0.558145z m57.64451-79.201726a201.563636 201.563636 0 0 1 21.13632 34.861203 341.292098 341.292098 0 0 1 16.927356 42.33669q2.186831 6.816692 6.404946 20.678824a0.704544 0.704544 0 0 0 0.649644 0.494096q22.225161 0.796043 45.118266 2.964575a0.914992 0.914992 0 0 0 0.796044-0.311097 0.914992 0.914992 0 0 0 0.219598-0.832643 317.337601 317.337601 0 0 0-20.03833-61.807725 109.460519 109.460519 0 0 0-7.319938-13.633384c-3.211623-5.151406-7.557836-11.70275-13.322286-13.157588q-5.554003-1.399938-40.817803-9.735517c-3.815518-0.914992-6.240247-1.829984-9.342071-2.38813a0.347697 0.347697 0 0 0-0.347697 0.155549 0.320247 0.320247 0 0 0 0 0.375147z m73.400676 19.98343a133.012419 133.012419 0 0 1 9.424419 18.510292 331.950027 331.950027 0 0 1 19.736383 63.710909 0.814343 0.814343 0 0 0 0.704544 0.640494 550.047572 550.047572 0 0 1 66.135637 11.949799 0.530695 0.530695 0 0 0 0.640495-0.631345 177.883637 177.883637 0 0 0-17.988747-47.689395 88.671896 88.671896 0 0 0-11.7851-16.753507 82.559748 82.559748 0 0 0-29.499349-20.129829 165.348244 165.348244 0 0 0-36.892487-10.284512 0.466646 0.466646 0 0 0-0.466646 0.704544z m-54.048591 38.237525a203.256372 203.256372 0 0 1 3.824668 39.436164 0.530695 0.530695 0 0 0 0.530695 0.530696h9.149922a0.503246 0.503246 0 0 0 0.484946-0.631345 328.555406 328.555406 0 0 0-13.642534-39.445314 0.192148 0.192148 0 0 0-0.365997 0.109799z m378.944028 25.034187a13.496135 13.496135 0 0 0-3.165873-4.849459c-1.509737-1.509737-2.150232-2.452179-4.099166-2.250881a223.084253 223.084253 0 0 0-83.264292 25.125686 152.986699 152.986699 0 0 0-34.156659 24.70479 92.84426 92.84426 0 0 0-18.83054 24.649891 5.133106 5.133106 0 0 0-0.411746 0.914992 1.537187 1.537187 0 0 0 2.488778 0.914992 323.449749 323.449749 0 0 1 141.15585-68.624416 0.439196 0.439196 0 0 0 0.320247-0.585595z m-442.078491 32.93972a0.914992 0.914992 0 0 0 0.759444-0.860093 197.53767 197.53767 0 0 0 0.768593-20.321977q-0.073199-6.468995-6.899041-6.121298-13.249087 0.677094-17.750849 1.390788a4.456012 4.456012 0 0 0-4.364513 4.355363 151.769759 151.769759 0 0 0 0.365997 18.83969 3.422071 3.422071 0 0 0 2.900525 3.44952 61.368528 61.368528 0 0 0 24.146645-0.750293z m18.720741-2.488779a0.283648 0.283648 0 0 0 0-0.347697l-7.685935-7.685935a0.283648 0.283648 0 0 0-0.484946 0.182999l-0.914992 12.736691a0.283648 0.283648 0 0 0 0.06405 0.201299l3.248222 4.144914a0.283648 0.283648 0 0 0 0.466646 0z m-55.32958-4.986708a0.265348 0.265348 0 0 0-0.494095-0.128099 304.59176 304.59176 0 0 1-25.994929 33.324017q-10.806058 11.968098-13.331437 15.454219a170.618599 170.618599 0 0 0-18.556042 32.216876 18.620092 18.620092 0 0 0 0 16.890756 55.036782 55.036782 0 0 0 17.796598 18.80309 12.553693 12.553693 0 0 0 16.369211-0.064049 75.431959 75.431959 0 0 0 17.220154-30.542441 430.329991 430.329991 0 0 0 16.296011-64.150104q0.173849-1.006491 0.329397-2.744977a0.988192 0.988192 0 0 0-0.713694-1.033941l-1.381638-0.411747a0.914992 0.914992 0 0 0-1.14374 0.558146q-3.165873 7.832333-7.850633 18.034496t-27.05632 57.891558a4.767109 4.767109 0 0 1-3.916167 3.220773 4.65731 4.65731 0 0 1-5.151406-5.608903 51.166365 51.166365 0 0 1 3.367171-8.912024q8.674126-19.342936 23.945347-51.77026 4.062565-8.600927 10.50411-24.951837a2.33323 2.33323 0 0 0 0.155549-1.079691z m319.085237 48.631837a68.285869 68.285869 0 0 0-17.311653-12.315796 238.245674 238.245674 0 0 0-50.983366-18.656691q-24.183244-5.92-41.17465-8.747326a659.023146 659.023146 0 0 0-100.118449-8.417928 330.101743 330.101743 0 0 0-33.671713 1.262689 12.727542 12.727542 0 0 0-4.657311 1.271839 2.882225 2.882225 0 0 0-0.823493 0.640495 96.851926 96.851926 0 0 0-10.064914 13.724883 0.420896 0.420896 0 0 0 0.393446 0.640495 533.147666 533.147666 0 0 1 72.613783-0.082349 797.351669 797.351669 0 0 1 138.69452 21.584666q27.522966 6.825842 41.723646 9.36952a22.36241 22.36241 0 0 0 5.133106 0.375147 0.375147 0.375147 0 0 0 0.228748-0.631344z m-276.117202-17.750849l2.552828-7.713385a0.658794 0.658794 0 0 0-0.274497-0.768593 12.041298 12.041298 0 0 1-3.788068-4.199815 1.262689 1.262689 0 0 0-1.079691-0.613044h-1.445688a0.786893 0.786893 0 0 0-0.640494 0.329397 0.814343 0.814343 0 0 0-0.109799 0.722844l4.218114 12.233446a0.301947 0.301947 0 0 0 0.567295 0z m-12.196846 35.410198l7.804883-22.399009a0.731994 0.731994 0 0 0 0-0.567295 104.162714 104.162714 0 0 1-8.582627-23.661699 0.695394 0.695394 0 0 0-0.677094-0.539845h-5.288655a0.631345 0.631345 0 0 0-0.475796 0.219598 0.613045 0.613045 0 0 0-0.137249 0.503245q3.806368 21.429118 6.761793 46.380956a0.329397 0.329397 0 0 0 0.631344 0.073199z m-505.917498-35.519997a166.720732 166.720732 0 0 0-19.050138 7.951282 57.251063 57.251063 0 0 0-25.83023 24.228994 92.258665 92.258665 0 0 0-7.704235 17.329953 356.846965 356.846965 0 0 0-9.021823 41.10145q-4.886058 30.762038-8.23493 61.798574a1.235239 1.235239 0 0 0 0.914992 1.317589l22.874806 6.807542a0.704544 0.704544 0 0 0 0.914992-0.622194q2.937125-41.549797 8.976073-79.467075c4.69391-29.40785 14.173229-59.071898 36.434991-80.016069a0.247048 0.247048 0 0 0 0-0.311097 0.265348 0.265348 0 0 0-0.356847-0.146399z m490.920775 12.462194a559.499442 559.499442 0 0 1-12.215146 44.907818q-17.275053 53.847292-29.417 93.704353a0.988192 0.988192 0 0 0 0.155549 0.914992 1.006491 1.006491 0 0 0 0.805193 0.402597h15.783616a1.701886 1.701886 0 0 0 1.619536-1.17119l24.594991-74.205869a4.090015 4.090015 0 0 0 0.155549-0.741144 276.602148 276.602148 0 0 0 0.969891-46.472455 160.178538 160.178538 0 0 0-2.022132-17.293353 0.219598 0.219598 0 0 0-0.210449-0.182998 0.201298 0.201298 0 0 0-0.210448 0.164698z" fill="#515151" p-id="11066"></path><path d="M573.564357 349.03769a0.091499 0.091499 0 0 0-0.082349 0.155548 26.662873 26.662873 0 0 1 6.523894 17.540401 56.519069 56.519069 0 0 1-0.841793 11.501453c-2.580278 14.584976-12.196846 32.079627-30.194743 24.430292a23.679999 23.679999 0 0 1-11.528902-23.478701 49.958575 49.958575 0 0 1 6.981391-23.789797 0.338547 0.338547 0 0 0-0.494096-0.430047q-5.160556 4.016816-6.276847 4.995858a53.591094 53.591094 0 0 0-7.695084 9.634868 2.799876 2.799876 0 0 1-4.172365 0.548995l-0.164698-0.137249a3.659969 3.659969 0 0 1-0.814344-4.520061 49.171682 49.171682 0 0 1 37.176134-26.278577 31.942378 31.942378 0 0 1 29.142503 10.860958c1.399938 1.619536 4.501762 6.651993 1.528037 8.23493a3.605069 3.605069 0 0 1-4.364513-0.914992 30.890137 30.890137 0 0 0-14.722225-8.353879z" fill="#515151" p-id="11067"></path><path d="M736.332323 363.055371c6.99969 10.110664 4.382813 25.464233-0.247048 36.544789a31.320184 31.320184 0 0 1-7.878083 11.181205 13.596784 13.596784 0 0 1-18.78479-1.271839 20.935022 20.935022 0 0 1-5.078207-13.651684 46.847602 46.847602 0 0 1 9.461019-30.59734 29.490199 29.490199 0 0 1 23.789798-11.629551 22.783306 22.783306 0 0 1 21.419968 20.587325 4.273014 4.273014 0 0 1-1.015642 3.376321 1.244389 1.244389 0 0 1-0.731993 0.439196c-4.419412 0.814343-4.080865-4.73966-5.361855-6.953941a15.838515 15.838515 0 0 0-15.29867-8.527727 0.311097 0.311097 0 0 0-0.274497 0.173848 0.338547 0.338547 0 0 0 0 0.329398z" fill="#515151" p-id="11068"></path><path d="M411.244737 382.425756a22.774156 22.774156 0 0 0-8.308129-7.594436 16.46986 16.46986 0 0 0-22.289211 2.46133q-0.475796 0.567295-2.909675 3.659968a1.829984 1.829984 0 0 1-2.488779 0.365997c-2.159382-1.528037-1.610386-3.907017-0.256198-5.965749a21.868314 21.868314 0 0 1 28.007912-7.795734 30.762038 30.762038 0 0 1 15.454219 14.557527 4.629861 4.629861 0 0 1-0.274498 5.142256c-0.914992 1.326739-4.510912 2.141082-6.340896 3.028624a20.925872 20.925872 0 0 0-12.489644 18.610942 16.085563 16.085563 0 0 0 10.833508 14.12748 14.520927 14.520927 0 0 0 12.187697-0.155549q1.930634-1.088841 2.927975-1.555487a2.278331 2.278331 0 0 1 2.507078 0.365997c3.824667 3.422071-2.433879 7.08204-5.334404 8.23493a22.874805 22.874805 0 0 1-21.044821-3.51357 22.170261 22.170261 0 0 1-8.866275-21.694466 28.520307 28.520307 0 0 1 18.382194-21.301018 0.640495 0.640495 0 0 0 0.320247-0.914993z" fill="#515151" p-id="11069"></path><path d="M676.317983 425.714038a1.335889 1.335889 0 0 1 1.088841-1.528037l0.979041-0.164699c1.994683-0.329397 3.971066 1.646986 4.428563 4.410263l0.420896 2.561978c0.457496 2.744977-0.786893 5.270355-2.744976 5.599752l-0.969892 0.155549a1.335889 1.335889 0 0 1-1.528037-1.088841z" fill="#515151" p-id="11070"></path><path d="M647.852575 492.169923a27.147819 27.147819 0 0 0 18.299844-5.654652c1.033941-0.741144 3.074374-1.436538 4.208965-0.448346 2.516229 2.177681-0.622195 5.645502-2.616878 7.082039a31.521482 31.521482 0 0 1-39.756412-2.863925c-1.765935-1.720185-4.382813-5.590602-1.564637-7.393137 1.262689-0.814343 3.184173 0.164699 4.090016 1.043091a27.147819 27.147819 0 0 0 17.339102 8.23493z" fill="#515151" p-id="11071"></path><path d="M862.691857 849.153128m2.831371 0.909054l0.008712 0.002797q2.831371 0.909054 1.922317 3.740424l-8.052817 25.081589q-0.909054 2.831371-3.740425 1.922317l-0.008712-0.002797q-2.831371-0.909054-1.922317-3.740425l8.052817-25.081588q0.909054-2.831371 3.740425-1.922317Z" fill="#515151" p-id="11072"></path><path d="M264.315287 884.472837c3.742318-1.976383 4.895208 1.372488 5.700401 4.419412a568.457216 568.457216 0 0 0 49.016133 124.493841q2.525379 4.68476-1.335888 6.780093a1.610386 1.610386 0 0 1-0.832643 0.210448 4.245564 4.245564 0 0 1-4.062566-2.067883 545.143214 545.143214 0 0 1-47.579595-119.662682 88.049701 88.049701 0 0 1-2.33323-11.492302 2.644328 2.644328 0 0 1 1.399938-2.680927z" fill="#515151" p-id="11073"></path><path d="M845.792843 901.05215m2.822659 0.906257l0.008712 0.002797q2.822659 0.906257 1.916402 3.728915l-5.736828 17.868128q-0.906257 2.822659-3.728915 1.916402l-0.008712-0.002797q-2.822659-0.906257-1.916402-3.728916l5.736828-17.868127q0.906257-2.822659 3.728915-1.916402Z" fill="#515151" p-id="11074"></path><path d="M825.920181 962.312357m2.854287 0.927414l0 0q2.854287 0.927414 1.926872 3.781701l-6.316593 19.440476q-0.927414 2.854287-3.781701 1.926873l0 0q-2.854287-0.927414-1.926872-3.781701l6.316593-19.440476q0.927414-2.854287 3.781701-1.926873Z" fill="#515151" p-id="11075"></path><path d="M810.841971 1007.080193m2.889408 1.023193l0 0q2.889407 1.023193 1.866214 3.9126l-2.867994 8.098965q-1.023193 2.889407-3.9126 1.866215l0 0q-2.889407-1.023193-1.866214-3.9126l2.867994-8.098965q1.023193-2.889407 3.9126-1.866215Z" fill="#515151" p-id="11076"></path></svg>